HIERARCHY
ROOT Hips
{
	OFFSET 0.000000 100.481300 0.000000
	CHANNELS 6 Xposition Yposition Zposition Xrotation Yrotation Zrotation
	JOINT Spine
	{
		OFFSET -0.279200 12.230698 -2.892100
		CHANNELS 3 Xrotation Yrotation Zrotation
		JOINT Spine1
		{
			OFFSET -0.325700 14.269203 -3.374200
			CHANNELS 3 Xrotation Yrotation Zrotation
			JOINT Spine2
			{
				OFFSET -0.372300 16.307602 -0.352600
				CHANNELS 3 Xrotation Yrotation Zrotation
				JOINT Neck
				{
					OFFSET -0.418800 17.814194 8.416900
					CHANNELS 3 Xrotation Yrotation Zrotation
					JOINT Head
					{
						OFFSET 0.000000 7.031097 3.806800
						CHANNELS 3 Xrotation Yrotation Zrotation
						JOINT HeadTop_End
						{
							OFFSET 0.000000 24.646606 12.978600
							CHANNELS 3 Xrotation Yrotation Zrotation
							End Site
							{
								OFFSET 0.000000 27.854965 0.000000
							}
						}
					}
				}
				JOINT LeftShoulder
				{
					OFFSET 16.952999 14.495407 -7.737500
					CHANNELS 3 Xrotation Yrotation Zrotation
					JOINT LeftArm
					{
						OFFSET 9.308998 -2.777710 0.208600
						CHANNELS 3 Xrotation Yrotation Zrotation
						JOINT LeftForeArm
						{
							OFFSET 29.972298 0.000000 0.000000
							CHANNELS 3 Xrotation Yrotation Zrotation
							JOINT LeftHand
							{
								OFFSET 26.026505 0.000000 0.000000
								CHANNELS 3 Xrotation Yrotation Zrotation
								JOINT LeftHandThumb1
								{
									OFFSET 12.240501 -7.147949 9.207150
									CHANNELS 3 Xrotation Yrotation Zrotation
									JOINT LeftHandThumb2
									{
										OFFSET 4.138618 -2.389435 2.389433
										CHANNELS 3 Xrotation Yrotation Zrotation
										JOINT LeftHandThumb3
										{
											OFFSET 2.726913 -1.574387 1.574386
											CHANNELS 3 Xrotation Yrotation Zrotation
											JOINT LeftHandThumb4
											{
												OFFSET 3.941010 -2.275345 2.275342
												CHANNELS 3 Xrotation Yrotation Zrotation
												End Site
												{
													OFFSET -0.005798 5.087799 0.009903
												}
											}
										}
									}
								}
								JOINT LeftHandIndex1
								{
									OFFSET 24.424698 -1.985611 5.953459
									CHANNELS 3 Xrotation Yrotation Zrotation
									JOINT LeftHandIndex2
									{
										OFFSET 6.426697 0.000000 0.000000
										CHANNELS 3 Xrotation Yrotation Zrotation
										JOINT LeftHandIndex3
										{
											OFFSET 5.337898 0.000000 0.000000
											CHANNELS 3 Xrotation Yrotation Zrotation
											JOINT LeftHandIndex4
											{
												OFFSET 4.409401 0.000000 0.000000
												CHANNELS 3 Xrotation Yrotation Zrotation
												End Site
												{
													OFFSET 0.000000 4.409363 0.014373
												}
											}
										}
									}
								}
								JOINT LeftHandMiddle1
								{
									OFFSET 23.810104 0.000000 0.000000
									CHANNELS 3 Xrotation Yrotation Zrotation
									JOINT LeftHandMiddle2
									{
										OFFSET 7.176498 0.000000 0.000000
										CHANNELS 3 Xrotation Yrotation Zrotation
										JOINT LeftHandMiddle3
										{
											OFFSET 6.774902 0.000000 0.000000
											CHANNELS 3 Xrotation Yrotation Zrotation
											JOINT LeftHandMiddle4
											{
												OFFSET 5.403328 0.000000 0.000000
												CHANNELS 3 Xrotation Yrotation Zrotation
												End Site
												{
													OFFSET -0.027702 5.403244 0.017414
												}
											}
										}
									}
								}
								JOINT LeftHandRing1
								{
									OFFSET 22.908401 -0.839279 -6.020567
									CHANNELS 3 Xrotation Yrotation Zrotation
									JOINT LeftHandRing2
									{
										OFFSET 6.337502 0.000000 0.000000
										CHANNELS 3 Xrotation Yrotation Zrotation
										JOINT LeftHandRing3
										{
											OFFSET 5.779297 0.000000 0.000000
											CHANNELS 3 Xrotation Yrotation Zrotation
											JOINT LeftHandRing4
											{
												OFFSET 4.965698 0.000000 0.000000
												CHANNELS 3 Xrotation Yrotation Zrotation
												End Site
												{
													OFFSET 0.000000 4.965668 0.016186
												}
											}
										}
									}
								}
								JOINT LeftHandPinky1
								{
									OFFSET 20.037003 -1.530319 -10.950146
									CHANNELS 3 Xrotation Yrotation Zrotation
									JOINT LeftHandPinky2
									{
										OFFSET 5.254700 0.000000 0.000000
										CHANNELS 3 Xrotation Yrotation Zrotation
										JOINT LeftHandPinky3
										{
											OFFSET 4.810204 0.000000 0.000000
											CHANNELS 3 Xrotation Yrotation Zrotation
											JOINT LeftHandPinky4
											{
												OFFSET 3.647202 0.000000 0.000000
												CHANNELS 3 Xrotation Yrotation Zrotation
												End Site
												{
													OFFSET 0.000000 3.647186 0.011889
												}
											}
										}
									}
								}
							}
						}
					}
				}
				JOINT RightShoulder
				{
					OFFSET -15.141001 14.495407 -7.737500
					CHANNELS 3 Xrotation Yrotation Zrotation
					JOINT RightArm
					{
						OFFSET -9.308998 -2.777710 0.208500
						CHANNELS 3 Xrotation Yrotation Zrotation
						JOINT RightForeArm
						{
							OFFSET -29.972300 0.000000 0.000000
							CHANNELS 3 Xrotation Yrotation Zrotation
							JOINT RightHand
							{
								OFFSET -26.026505 0.000000 0.000000
								CHANNELS 3 Xrotation Yrotation Zrotation
								JOINT RightHandThumb1
								{
									OFFSET -12.240601 -7.148026 9.207092
									CHANNELS 3 Xrotation Yrotation Zrotation
									JOINT RightHandThumb2
									{
										OFFSET -4.138618 -2.389435 2.389433
										CHANNELS 3 Xrotation Yrotation Zrotation
										JOINT RightHandThumb3
										{
											OFFSET -2.726974 -1.574417 1.574421
											CHANNELS 3 Xrotation Yrotation Zrotation
											JOINT RightHandThumb4
											{
												OFFSET -3.941010 -2.275345 2.275343
												CHANNELS 3 Xrotation Yrotation Zrotation
												End Site
												{
													OFFSET 0.005814 5.087799 0.009927
												}
											}
										}
									}
								}
								JOINT RightHandIndex1
								{
									OFFSET -24.424698 -1.985657 5.953444
									CHANNELS 3 Xrotation Yrotation Zrotation
									JOINT RightHandIndex2
									{
										OFFSET -6.426697 0.000000 0.000000
										CHANNELS 3 Xrotation Yrotation Zrotation
										JOINT RightHandIndex3
										{
											OFFSET -5.337898 0.000000 0.000000
											CHANNELS 3 Xrotation Yrotation Zrotation
											JOINT RightHandIndex4
											{
												OFFSET -4.409401 0.000000 0.000000
												CHANNELS 3 Xrotation Yrotation Zrotation
												End Site
												{
													OFFSET 0.000000 4.409363 0.014408
												}
											}
										}
									}
								}
								JOINT RightHandMiddle1
								{
									OFFSET -23.810097 0.000000 0.000000
									CHANNELS 3 Xrotation Yrotation Zrotation
									JOINT RightHandMiddle2
									{
										OFFSET -7.176498 0.000000 0.000000
										CHANNELS 3 Xrotation Yrotation Zrotation
										JOINT RightHandMiddle3
										{
											OFFSET -6.774902 0.000000 0.000000
											CHANNELS 3 Xrotation Yrotation Zrotation
											JOINT RightHandMiddle4
											{
												OFFSET -5.403328 0.000000 0.000000
												CHANNELS 3 Xrotation Yrotation Zrotation
												End Site
												{
													OFFSET 0.027702 5.403244 0.017457
												}
											}
										}
									}
								}
								JOINT RightHandRing1
								{
									OFFSET -22.908302 -0.839325 -6.020576
									CHANNELS 3 Xrotation Yrotation Zrotation
									JOINT RightHandRing2
									{
										OFFSET -6.337502 0.000000 0.000000
										CHANNELS 3 Xrotation Yrotation Zrotation
										JOINT RightHandRing3
										{
											OFFSET -5.779297 0.000000 0.000000
											CHANNELS 3 Xrotation Yrotation Zrotation
											JOINT RightHandRing4
											{
												OFFSET -4.965698 0.000000 0.000000
												CHANNELS 3 Xrotation Yrotation Zrotation
												End Site
												{
													OFFSET 0.000000 4.965668 0.016226
												}
											}
										}
									}
								}
								JOINT RightHandPinky1
								{
									OFFSET -20.037003 -1.530334 -10.950259
									CHANNELS 3 Xrotation Yrotation Zrotation
									JOINT RightHandPinky2
									{
										OFFSET -5.254700 0.000000 0.000000
										CHANNELS 3 Xrotation Yrotation Zrotation
										JOINT RightHandPinky3
										{
											OFFSET -4.810204 0.000000 0.000000
											CHANNELS 3 Xrotation Yrotation Zrotation
											JOINT RightHandPinky4
											{
												OFFSET -3.647202 0.000000 0.000000
												CHANNELS 3 Xrotation Yrotation Zrotation
												End Site
												{
													OFFSET 0.000000 3.647186 0.011917
												}
											}
										}
									}
								}
							}
						}
					}
				}
			}
		}
	}
	JOINT LeftUpLeg
	{
		OFFSET 15.427100 -6.655098 0.678600
		CHANNELS 3 Xrotation Yrotation Zrotation
		JOINT LeftLeg
		{
			OFFSET 4.081073 -39.591068 13.024000
			CHANNELS 3 Xrotation Yrotation Zrotation
			JOINT LeftFoot
			{
				OFFSET -4.081074 -37.707932 -15.979700
				CHANNELS 3 Xrotation Yrotation Zrotation
				JOINT LeftToeBase
				{
					OFFSET 5.346399 -15.068900 20.645000
					CHANNELS 3 Xrotation Yrotation Zrotation
					JOINT LeftToe_End
					{
						OFFSET 2.754700 0.931300 11.300900
						CHANNELS 3 Xrotation Yrotation Zrotation
						End Site
						{
							OFFSET 0.000000 11.669021 0.000000
						}
					}
				}
			}
		}
	}
	JOINT RightUpLeg
	{
		OFFSET -15.569500 -6.655098 0.678600
		CHANNELS 3 Xrotation Yrotation Zrotation
		JOINT RightLeg
		{
			OFFSET -4.081825 -39.591045 13.023800
			CHANNELS 3 Xrotation Yrotation Zrotation
			JOINT RightFoot
			{
				OFFSET 4.081824 -37.707954 -15.979600
				CHANNELS 3 Xrotation Yrotation Zrotation
				JOINT RightToeBase
				{
					OFFSET -5.346400 -15.068900 20.645000
					CHANNELS 3 Xrotation Yrotation Zrotation
					JOINT RightToe_End
					{
						OFFSET -2.754700 0.931300 11.300900
						CHANNELS 3 Xrotation Yrotation Zrotation
						End Site
						{
							OFFSET 0.000000 11.669021 0.000000
						}
					}
				}
			}
		}
	}
}
MOTION
Frames: 4
Frame Time: 0.033333
-38.995373 81.405205 32.545975 44.954908 -2.299465 -0.346618 19.861802 -1.325036 -0.700002 12.266146 -1.785871 -1.140165 12.175865 -1.448396 -0.452383 -8.436242 0.138097 -0.289538 -16.388342 -5.165772 12.381033 0.000001 0.000000 -0.000001 -8.725135 -20.919333 -3.719064 -57.076882 0.244066 -81.193846 -0.000008 -78.045095 -0.000006 -67.835274 8.434245 -43.143020 8.808120 -18.681529 -10.155885 4.721753 9.858591 0.055026 -7.553452 -1.444805 12.771019 0.000000 0.000001 0.000000 -0.475630 -0.729181 -52.158869 0.159058 1.357253 -13.368209 0.420495 2.181328 -21.819867 -0.000002 0.000000 -0.000000 1.170169 5.978753 -48.667673 0.802229 2.960920 -30.313735 0.290377 1.823227 -18.097056 0.000002 -0.000000 0.000001 3.760489 7.974529 -55.195725 1.270728 3.644673 -38.431582 0.100991 1.084215 -10.642455 -0.000002 -0.000000 -0.000001 6.942066 20.819629 -59.946296 0.590322 2.564776 -25.919485 0.302394 1.859572 -18.471050 0.000001 0.000001 -0.000003 -2.735888 32.453350 -9.757752 -48.236551 -26.394284 88.777050 0.001439 93.571515 -0.001467 -69.751333 16.901974 35.976795 -9.389040 1.804545 1.035667 10.038998 -25.367529 12.004349 -6.445031 1.372157 -0.734802 0.000002 0.000002 -0.000001 0.816484 0.346156 61.021518 0.172110 -1.255719 15.609354 0.267441 -1.556996 19.491567 0.000000 -0.000001 -0.000000 4.646953 -7.413650 64.228544 0.762996 -2.556302 33.233470 0.014273 -0.364601 4.480305 -0.000000 0.000003 -0.000000 1.349879 -6.340075 78.291159 0.256269 -1.525102 19.076636 0.055258 -0.716075 8.825487 0.000000 0.000001 0.000001 -0.225874 -13.534960 67.728245 0.464103 -2.028506 25.771419 0.046754 -0.658981 8.117061 0.000000 0.000002 -0.000001 -87.082289 -2.214381 21.921448 53.352804 0.375229 -1.718962 2.087940 3.742902 -12.825950 -4.785329 -0.000006 -0.000003 0.000000 -0.000002 0.000000 -66.651725 -25.749052 -6.881738 46.193713 6.273193 -5.427619 -25.551142 -5.750995 1.968522 -1.075123 0.000001 -0.000002 -0.000000 -0.000001 0.000000 
-41.840141 83.951576 36.187866 44.017601 -4.280113 -1.868846 19.141887 -0.968236 -0.609048 11.722440 -1.704721 -0.979715 11.633244 -1.382104 -0.303699 -7.745199 0.225456 0.051671 -13.627423 -4.367335 13.776779 0.000001 0.000001 -0.000001 -8.360011 -20.840835 -3.563121 -59.904980 -0.807396 -80.719592 -0.000008 -76.541074 -0.000005 -69.342683 11.315771 -38.104676 9.521816 -18.888753 -9.993991 4.726714 9.857682 0.054671 -7.553266 -1.443799 12.771283 -0.000000 -0.000000 -0.000000 -0.478470 -0.715731 -52.149710 0.159072 1.357272 -13.368191 0.420443 2.181210 -21.818800 -0.000002 -0.000000 -0.000001 1.178153 5.985509 -48.659576 0.802213 2.960856 -30.313264 0.290374 1.823228 -18.097085 0.000001 -0.000000 0.000001 3.768435 7.980209 -55.188226 1.270643 3.644589 -38.430346 0.100987 1.084207 -10.642463 -0.000002 0.000000 0.000001 6.941762 20.833149 -59.938468 0.590317 2.564778 -25.919482 0.302408 1.859597 -18.471075 -0.000000 0.000000 -0.000000 -2.242664 32.133004 -9.693853 -51.430232 -26.280261 89.586578 -0.000061 92.390097 0.000067 -70.158870 14.299418 29.596839 -9.328937 2.222818 0.805402 10.038651 -25.367481 12.004290 -6.445134 1.372442 -0.735931 -0.000000 0.000000 -0.000000 0.816827 0.346909 61.021532 0.171967 -1.255188 15.602811 0.267439 -1.556996 19.491634 0.000002 -0.000002 0.000000 4.647005 -7.413696 64.228565 0.762708 -2.555877 33.226948 0.014262 -0.364586 4.480292 -0.000000 -0.000004 0.000001 1.347098 -6.339862 78.298502 0.256090 -1.524609 19.070122 0.055266 -0.716077 8.825447 -0.000000 -0.000001 -0.000000 -0.228580 -13.533847 67.735266 0.463879 -2.027993 25.764893 0.046738 -0.659001 8.117061 -0.000000 -0.000001 0.000000 -88.983643 2.308746 20.445270 46.650315 -3.227321 -3.211926 6.105809 1.497948 -13.096984 -5.806954 -0.000005 -0.000000 -0.000000 0.000001 -0.000000 -56.042416 -29.764721 -0.050567 38.638223 8.456491 -5.639327 -26.243095 -4.342990 -0.086031 -0.375095 0.000007 -0.000001 -0.000000 -0.000002 -0.000000 
-44.910122 84.603775 39.847984 42.784739 -6.332430 -2.634093 18.569882 -0.805822 -0.631208 11.295571 -1.336269 -0.720035 11.204086 -1.018688 -0.067641 -7.786341 0.209136 0.527260 -10.687931 -3.425716 14.597489 -0.000001 0.000000 -0.000002 -7.985419 -20.814115 -3.355693 -61.740566 -1.544174 -80.209001 0.000123 -76.727873 0.000112 -70.351877 12.012046 -35.124992 10.429298 -18.553471 -9.296371 4.731824 9.856696 0.054589 -7.553028 -1.443017 12.771445 0.000001 0.000001 0.000001 -0.419075 -0.299924 -51.528620 0.159071 1.357272 -13.368108 0.420423 2.181112 -21.817817 -0.000002 -0.000001 -0.000000 1.434691 6.199477 -48.083357 0.802174 2.960819 -30.312793 0.290375 1.823221 -18.097073 -0.000005 0.000001 -0.000000 4.012403 8.169140 -54.634909 1.270544 3.644457 -38.428861 0.100999 1.084213 -10.642457 0.000000 -0.000000 -0.000000 6.796298 21.323145 -59.335083 0.590307 2.564756 -25.919383 0.302390 1.859580 -18.471060 0.000001 -0.000000 0.000002 -1.792223 31.822890 -9.505450 -54.094822 -26.210779 90.426411 0.006295 91.620485 -0.006303 -70.162982 11.847322 25.649556 -9.308967 2.655601 0.554892 10.038379 -25.367539 12.004264 -6.445277 1.372794 -0.737234 -0.000001 -0.000001 -0.000000 0.817341 0.348191 61.021347 0.172093 -1.255580 15.607947 0.267430 -1.557010 19.491627 0.000000 0.000001 0.000000 4.647108 -7.413754 64.228285 0.762931 -2.556202 33.232128 0.014244 -0.364612 4.480292 -0.000001 -0.000002 -0.000000 1.349341 -6.340037 78.292348 0.256258 -1.525010 19.075264 0.055259 -0.716055 8.825444 0.000001 0.000001 0.000002 -0.226313 -13.534728 67.729392 0.464052 -2.028401 25.770044 0.046752 -0.658987 8.117044 -0.000000 -0.000000 -0.000000 -89.682583 4.301651 18.082965 42.013064 -3.841860 -4.885005 14.265227 -3.186848 -4.480003 -10.401091 -0.022786 0.940214 0.000000 0.000000 -0.000000 -55.376442 -36.283047 0.061415 41.765172 8.794374 -6.169697 -18.941855 -4.187831 -0.383545 -12.567877 -0.000027 -0.000002 -0.000000 0.000000 -0.000000 
-48.641514 84.542557 43.619579 41.343364 -7.658519 -2.822471 18.275636 -0.864922 -0.524575 11.134265 -0.948126 -0.474245 11.039992 -0.643517 0.149439 -8.599078 0.015972 1.452390 -8.029220 -2.086700 14.793867 -0.000001 0.000000 0.000000 -7.603462 -20.815051 -3.113453 -62.417957 -1.943101 -79.610472 0.000008 -78.392588 -0.000004 -70.350648 11.497275 -33.419754 11.208836 -18.342225 -8.818584 4.737009 9.855657 0.055034 -7.552734 -1.442327 12.771560 0.000000 -0.000002 0.000001 -0.382362 -0.019336 -51.101539 0.159062 1.357268 -13.368048 0.420389 2.181044 -21.817067 0.000000 -0.000000 -0.000001 1.605089 6.346570 -47.687872 0.802158 2.960795 -30.312380 0.290377 1.823230 -18.096967 -0.000001 -0.000001 0.000000 4.174563 8.299456 -54.254873 1.270432 3.644335 -38.427338 0.100988 1.084227 -10.642418 -0.000000 0.000000 -0.000001 6.689454 21.653923 -58.917369 0.590290 2.564741 -25.919270 0.302398 1.859589 -18.470966 0.000000 0.000000 -0.000001 -1.378465 31.517273 -9.207545 -55.957916 -26.135770 91.239607 -0.001516 91.452668 0.001447 -69.305451 9.440027 24.134047 -9.330902 3.098180 0.288620 10.038184 -25.367686 12.004254 -6.445379 1.373080 -0.738680 -0.000000 -0.000001 -0.000000 0.818054 0.349733 61.021094 0.172164 -1.255869 15.611611 0.267430 -1.556997 19.491478 0.000000 -0.000002 0.000000 4.647355 -7.413883 64.227984 0.763081 -2.556485 33.235656 0.014252 -0.364593 4.480315 -0.000000 0.000000 -0.000000 1.350896 -6.340175 78.287983 0.256334 -1.525282 19.078728 0.055266 -0.716076 8.825544 -0.000000 -0.000001 0.000001 -0.224810 -13.535365 67.725198 0.464157 -2.028629 25.773567 0.046762 -0.658996 8.117035 -0.000000 0.000001 0.000002 -88.080460 5.500154 15.880303 39.677648 -3.419954 -5.858339 16.617328 -7.358615 6.882863 -11.314092 0.000000 -0.000001 -0.000000 -0.000000 0.000000 -66.303242 -32.684829 -9.633946 47.264516 5.488356 -5.752101 -5.711023 -2.299100 5.218129 -15.952177 -0.025802 0.644146 0.000000 0.000001 0.000000 
